<svg width="135" height="41" viewBox="0 0 135 41" fill="none" xmlns="http://www.w3.org/2000/svg">
<path d="M2.23454 0.033671V35.026H8.44963V22.3737C9.0159 22.3737 9.47946 22.3831 9.9458 22.3737C12.8826 22.3107 15.85 22.4461 18.7507 22.1284C23.7722 21.5795 26.9644 18.6313 27.5973 14.396C27.9165 12.2655 27.8832 10.1583 27.1171 8.08852C25.8707 4.73155 23.0449 2.78092 19.0366 2.31603C15.9249 1.95394 12.7327 2.06374 9.57662 1.97964C8.55511 1.9516 7.5336 1.97496 6.45658 1.97496V15.1318C6.73972 15.1318 7.0062 15.1318 7.27268 15.1318C9.68765 15.1318 12.1026 15.1365 14.5176 15.1272C14.959 15.1272 15.4031 15.0804 15.8389 15.0267C18.5703 14.6856 19.8666 12.3379 18.4371 10.3242C17.9319 9.60931 17.0991 9.32431 16.1942 9.29628C14.4787 9.24255 12.7605 9.27993 10.9312 9.27993V13.5129H8.64949V7.4788C8.82992 7.46011 9.01312 7.42273 9.19633 7.42273C11.3337 7.42039 13.4711 7.39937 15.6085 7.4274C19.3198 7.4788 21.274 9.29628 21.0186 12.4173C20.7854 15.2603 19.07 16.8419 15.6807 16.9563C11.9194 17.0825 8.14984 16.9844 4.32752 16.9844V0.0593682C4.48297 0.0453516 4.64119 0.0149827 4.79664 0.0149827C8.6828 0.0149827 12.569 -0.0340758 16.4523 0.0453513C19.2004 0.101418 21.8291 0.67376 24.1803 1.94459C26.7951 3.35559 28.4883 5.34828 29.2878 7.86425C30.3398 11.1792 30.2649 14.4801 28.8048 17.6969C27.0782 21.5 23.6501 23.5651 18.9339 24.0931C17.1019 24.2987 15.2282 24.2333 13.3712 24.2776C12.544 24.2963 11.714 24.28 10.7841 24.28V37H0V0.033671H2.23454Z" fill="url(#paint0_linear_156_6)"/>
<path d="M6.40939 33.8136H4.31364V18.8182C4.64396 18.8182 4.9382 18.8182 5.23522 18.8182C8.70223 18.8112 12.172 18.8299 15.639 18.7808C16.6244 18.7668 17.6404 18.6477 18.5842 18.4117C21.7042 17.6291 23.2753 15.7883 23.3891 12.7864C23.4225 11.9104 23.317 11.0086 23.1005 10.149C22.4315 7.4788 20.4218 5.96735 17.2046 5.70804C15.9666 5.60759 14.7119 5.64964 13.4628 5.64263C11.8833 5.63329 10.3039 5.64263 8.65782 5.64263V3.81113C8.91874 3.80179 9.21021 3.78076 9.50445 3.78076C11.7806 3.78076 14.054 3.78076 16.3302 3.78076C21.6154 3.78544 25.1879 6.56772 25.5793 11.004C25.7569 13.0037 25.6292 14.9706 24.4939 16.8021C23.0755 19.0822 20.6494 20.1381 17.7875 20.4464C15.6807 20.673 13.5294 20.6053 11.3976 20.6403C9.76815 20.666 8.13873 20.645 6.40939 20.645V33.8206V33.8136Z" fill="url(#paint1_linear_156_6)"/>
<path d="M22.42 26.24C22.78 26.24 23.1867 26.2933 23.64 26.4V29.66C23.1867 29.5667 22.7533 29.52 22.34 29.52C21.5267 29.52 20.9 29.7333 20.46 30.16C20.0333 30.5867 19.82 31.2133 19.82 32.04V37H16.28V26.4H19.52L19.64 27.48C19.96 27.08 20.36 26.7733 20.84 26.56C21.32 26.3467 21.8467 26.24 22.42 26.24Z" fill="white"/>
<path d="M30.2281 37.24C29.1215 37.24 28.1215 37.0067 27.2281 36.54C26.3481 36.06 25.6548 35.4 25.1481 34.56C24.6548 33.7067 24.4081 32.7533 24.4081 31.7C24.4081 30.6333 24.6548 29.68 25.1481 28.84C25.6548 28 26.3481 27.3467 27.2281 26.88C28.1081 26.4 29.1081 26.16 30.2281 26.16C31.3481 26.16 32.3481 26.4 33.2281 26.88C34.1081 27.3467 34.7948 28 35.2881 28.84C35.7948 29.68 36.0481 30.6333 36.0481 31.7C36.0481 32.7533 35.7948 33.7067 35.2881 34.56C34.7948 35.4 34.1015 36.06 33.2081 36.54C32.3281 37.0067 31.3348 37.24 30.2281 37.24ZM30.2281 34.02C30.8948 34.02 31.4415 33.8067 31.8681 33.38C32.2948 32.94 32.5081 32.38 32.5081 31.7C32.5081 31.02 32.2948 30.4667 31.8681 30.04C31.4415 29.6 30.8948 29.38 30.2281 29.38C29.5748 29.38 29.0281 29.6 28.5881 30.04C28.1615 30.4667 27.9481 31.02 27.9481 31.7C27.9481 32.38 28.1615 32.94 28.5881 33.38C29.0281 33.8067 29.5748 34.02 30.2281 34.02Z" fill="white"/>
<path d="M51.4211 26.2C52.7144 26.2 53.7078 26.5933 54.4011 27.38C55.0944 28.1667 55.4411 29.3 55.4411 30.78V37H51.9011V31.2C51.9011 30.6133 51.7611 30.16 51.4811 29.84C51.2011 29.52 50.8078 29.36 50.3011 29.36C49.7278 29.36 49.2744 29.5267 48.9411 29.86C48.6078 30.1933 48.4411 30.64 48.4411 31.2V37H44.9011V31.2C44.9011 30.6133 44.7611 30.16 44.4811 29.84C44.2144 29.52 43.8211 29.36 43.3011 29.36C42.7278 29.36 42.2744 29.5267 41.9411 29.86C41.6078 30.1933 41.4411 30.64 41.4411 31.2V37H37.9011V26.4H41.1611L41.2811 27.58C41.6411 27.14 42.0944 26.8 42.6411 26.56C43.2011 26.32 43.8144 26.2 44.4811 26.2C45.2278 26.2 45.8744 26.3467 46.4211 26.64C46.9678 26.9333 47.3944 27.3667 47.7011 27.94C48.6611 26.78 49.9011 26.2 51.4211 26.2Z" fill="white"/>
<path d="M61.7825 23H65.2425L70.3425 36.58V37H66.4425L65.7825 34.84H61.2625L60.5625 37H56.7025V36.58L61.7825 23ZM62.1425 31.86H64.9025L63.5225 27.9L62.1425 31.86Z" fill="white"/>
<path d="M79.2144 26.4H82.1944V35.26C82.1944 36.4067 81.9544 37.38 81.4744 38.18C80.9944 38.98 80.321 39.58 79.4544 39.98C78.601 40.3933 77.621 40.6 76.5144 40.6C75.0077 40.6 73.7744 40.2733 72.8144 39.62C71.8544 38.9667 71.3077 37.9933 71.1744 36.7H74.5944C74.6744 37.02 74.8744 37.26 75.1944 37.42C75.5277 37.58 75.9277 37.66 76.3944 37.66C77.0744 37.66 77.621 37.5 78.0344 37.18C78.461 36.86 78.6744 36.3933 78.6744 35.78V35.52C77.861 36.04 76.9277 36.3 75.8744 36.3C74.9277 36.3 74.0677 36.0867 73.2944 35.66C72.5344 35.2333 71.9344 34.64 71.4944 33.88C71.0544 33.12 70.8344 32.2533 70.8344 31.28C70.8344 30.32 71.0544 29.4533 71.4944 28.68C71.9344 27.8933 72.5344 27.28 73.2944 26.84C74.0677 26.3867 74.9277 26.16 75.8744 26.16C77.1277 26.16 78.201 26.5333 79.0944 27.28L79.2144 26.4ZM76.5144 33.46C77.1677 33.46 77.6944 33.2667 78.0944 32.88C78.4944 32.48 78.6944 31.9733 78.6944 31.36C78.6944 30.7467 78.4944 30.2467 78.0944 29.86C77.6944 29.4733 77.1677 29.28 76.5144 29.28C75.861 29.28 75.3344 29.4733 74.9344 29.86C74.5477 30.2467 74.3544 30.7467 74.3544 31.36C74.3544 31.9733 74.5477 32.48 74.9344 32.88C75.3344 33.2667 75.861 33.46 76.5144 33.46Z" fill="white"/>
<path d="M90.877 26.24C91.237 26.24 91.6437 26.2933 92.097 26.4V29.66C91.6437 29.5667 91.2104 29.52 90.797 29.52C89.9837 29.52 89.357 29.7333 88.917 30.16C88.4904 30.5867 88.277 31.2133 88.277 32.04V37H84.737V26.4H87.977L88.097 27.48C88.417 27.08 88.817 26.7733 89.297 26.56C89.777 26.3467 90.3037 26.24 90.877 26.24Z" fill="white"/>
<path d="M98.6852 37.24C97.5785 37.24 96.5785 37.0067 95.6852 36.54C94.8052 36.06 94.1118 35.4 93.6052 34.56C93.1118 33.7067 92.8652 32.7533 92.8652 31.7C92.8652 30.6333 93.1118 29.68 93.6052 28.84C94.1118 28 94.8052 27.3467 95.6852 26.88C96.5652 26.4 97.5652 26.16 98.6852 26.16C99.8052 26.16 100.805 26.4 101.685 26.88C102.565 27.3467 103.252 28 103.745 28.84C104.252 29.68 104.505 30.6333 104.505 31.7C104.505 32.7533 104.252 33.7067 103.745 34.56C103.252 35.4 102.558 36.06 101.665 36.54C100.785 37.0067 99.7918 37.24 98.6852 37.24ZM98.6852 34.02C99.3518 34.02 99.8985 33.8067 100.325 33.38C100.752 32.94 100.965 32.38 100.965 31.7C100.965 31.02 100.752 30.4667 100.325 30.04C99.8985 29.6 99.3518 29.38 98.6852 29.38C98.0318 29.38 97.4852 29.6 97.0452 30.04C96.6185 30.4667 96.4052 31.02 96.4052 31.7C96.4052 32.38 96.6185 32.94 97.0452 33.38C97.4852 33.8067 98.0318 34.02 98.6852 34.02Z" fill="white"/>
<path d="M112.018 23C113.045 23 113.938 23.2067 114.698 23.62C115.471 24.0333 116.065 24.6267 116.478 25.4C116.905 26.16 117.118 27.0467 117.118 28.06C117.118 29.0733 116.905 29.96 116.478 30.72C116.065 31.48 115.471 32.0667 114.698 32.48C113.938 32.8933 113.045 33.1 112.018 33.1H110.198V37H106.438V23H112.018ZM111.658 29.76C112.191 29.76 112.605 29.6133 112.898 29.32C113.205 29.0133 113.358 28.6067 113.358 28.1C113.358 27.58 113.205 27.1733 112.898 26.88C112.605 26.5733 112.191 26.42 111.658 26.42H110.158V29.76H111.658Z" fill="white"/>
<path d="M123.763 37.24C122.657 37.24 121.657 37.0067 120.763 36.54C119.883 36.06 119.19 35.4 118.683 34.56C118.19 33.7067 117.943 32.7533 117.943 31.7C117.943 30.6333 118.19 29.68 118.683 28.84C119.19 28 119.883 27.3467 120.763 26.88C121.643 26.4 122.643 26.16 123.763 26.16C124.883 26.16 125.883 26.4 126.763 26.88C127.643 27.3467 128.33 28 128.823 28.84C129.33 29.68 129.583 30.6333 129.583 31.7C129.583 32.7533 129.33 33.7067 128.823 34.56C128.33 35.4 127.637 36.06 126.743 36.54C125.863 37.0067 124.87 37.24 123.763 37.24ZM123.763 34.02C124.43 34.02 124.977 33.8067 125.403 33.38C125.83 32.94 126.043 32.38 126.043 31.7C126.043 31.02 125.83 30.4667 125.403 30.04C124.977 29.6 124.43 29.38 123.763 29.38C123.11 29.38 122.563 29.6 122.123 30.04C121.697 30.4667 121.483 31.02 121.483 31.7C121.483 32.38 121.697 32.94 122.123 33.38C122.563 33.8067 123.11 34.02 123.763 34.02Z" fill="white"/>
<path d="M134.996 37H131.436V23H134.996V37Z" fill="white"/>
<defs>
<linearGradient id="paint0_linear_156_6" x1="67.4981" y1="0" x2="67.4981" y2="40.6" gradientUnits="userSpaceOnUse">
<stop stop-color="#FF2A2A" stop-opacity="0.89"/>
<stop offset="1" stop-color="#FFC32A"/>
</linearGradient>
<linearGradient id="paint1_linear_156_6" x1="67.4981" y1="0" x2="67.4981" y2="40.6" gradientUnits="userSpaceOnUse">
<stop stop-color="#FF2A2A" stop-opacity="0.89"/>
<stop offset="1" stop-color="#FFC32A"/>
</linearGradient>
</defs>
</svg>
